<svg width="256" height="256" viewBox="0 0 256 256" fill="none" xmlns="http://www.w3.org/2000/svg">
<g clip-path="url(#clip0_1_45)">
<path fill-rule="evenodd" clip-rule="evenodd" d="M0 0C86.7096 0 256 0 256 0C256 88.086 256 167.914 256 256C169.29 256 86.7096 256 0 256C0 167.914 0 88.0859 0 0Z" fill="#E4E0D7"/>
<path fill-rule="evenodd" clip-rule="evenodd" d="M202.088 56C215.829 58.0142 225.546 67.0494 225.546 79.5603V177.199C225.546 183.454 221.636 190.594 216.945 193.722C202.113 184.74 144.226 148.267 144.226 148.267C151.72 143.673 159.083 139.372 166.706 134.975C169.256 133.018 170.103 130.477 169.247 127.351C168.832 126.154 168.116 125.176 167.097 124.419C149.047 113.504 130.932 102.687 112.753 91.9687C108.481 90.5217 105.614 91.8901 104.152 96.0738C103.891 105.327 103.631 114.579 103.37 123.832C79.5179 109.562 55.2129 95.6824 31.628 81.0217C31.628 81.0217 31.628 84.1494 31.628 78.6759C31.628 73.2024 36.3731 62.8528 43.3569 59.1277C47.073 57.4169 51.0674 56.244 55.1705 56H202.088Z" fill="#5B2D37"/>
<path d="M102.002 138.987C81.8716 126.771 51.8975 108.786 31.628 96.7627C31.628 96.7627 29.62 150.068 30.0641 176.519C30.0641 187.466 44.1388 200.759 55.0858 199.977H200.524L128.783 155.798C128.261 155.537 127.74 155.537 127.219 155.798L110.407 165.181C108.393 165.44 105.982 165.179 104.347 164.008C102.783 162.445 102.002 161.663 102.002 159.317V138.987Z" fill="#FF9700"/>
</g>
<defs>
<clipPath id="clip0_1_45">
<rect width="256" height="256" fill="white"/>
</clipPath>
</defs>
</svg>
